<?xml version="1.0" encoding="iso-8859-1"?>
<!-- Generator: Adobe Illustrator 19.0.0, SVG Export Plug-In . SVG Version: 6.00 Build 0)  -->
<svg version="1.1" id="Layer_1" xmlns="http://www.w3.org/2000/svg" xmlns:xlink="http://www.w3.org/1999/xlink" x="0px" y="0px"
	 viewBox="0 0 512 512" style="enable-background:new 0 0 512 512;" xml:space="preserve">
<path style="fill:#EFF2FA;" d="M485.517,52.966H26.483C11.857,52.966,0,64.822,0,79.448v353.103
	c0,14.626,11.857,26.483,26.483,26.483h459.034c14.626,0,26.483-11.857,26.483-26.483V79.448
	C512,64.822,500.143,52.966,485.517,52.966z M485.517,441.379H26.483c-4.875,0-8.828-3.953-8.828-8.828V132.414
	c0-4.875,3.953-8.828,8.828-8.828h459.034c4.875,0,8.828,3.953,8.828,8.828v300.138
	C494.345,437.427,490.392,441.379,485.517,441.379z"/>
<circle style="fill:#FF6464;" cx="35.31" cy="88.276" r="8.828"/>
<circle style="fill:#FFE182;" cx="61.793" cy="88.276" r="8.828"/>
<circle style="fill:#A5D76E;" cx="88.276" cy="88.276" r="8.828"/>
<path style="fill:#FFFFFF;" d="M476.69,97.103H123.586c-4.875,0-8.828-3.953-8.828-8.828l0,0c0-4.875,3.953-8.828,8.828-8.828
	H476.69c4.875,0,8.828,3.953,8.828,8.828l0,0C485.517,93.151,481.565,97.103,476.69,97.103z"/>
<path style="fill:#EFF2FA;" d="M238.345,423.724H44.138c-4.875,0-8.828-3.953-8.828-8.828V150.069c0-4.875,3.953-8.828,8.828-8.828
	h194.207c4.875,0,8.828,3.953,8.828,8.828v264.828C247.172,419.772,243.22,423.724,238.345,423.724z"/>
<path style="fill:#28AFF0;" d="M467.862,423.724H273.655c-4.875,0-8.828-3.953-8.828-8.828V150.069c0-4.875,3.953-8.828,8.828-8.828
	h194.207c4.875,0,8.828,3.953,8.828,8.828v264.828C476.69,419.772,472.737,423.724,467.862,423.724z"/>
<path style="fill:#707487;" d="M176.552,176.547h-26.483c0-4.875-3.948-8.828-8.828-8.828s-8.828,3.953-8.828,8.828h-26.483
	c-4.879,0-8.828,3.953-8.828,8.828c0,4.875,3.948,8.828,8.828,8.828h43.036c-1.075,5.338-3.262,12.445-7.577,19.71
	c-1.116-1.879-2.346-3.656-3.277-5.697c-2.026-4.439-7.258-6.401-11.699-4.366c-4.439,2.026-6.388,7.258-4.371,11.694
	c2.066,4.524,4.524,8.767,7.337,12.715c-4.781,4.102-10.647,7.811-17.898,10.712c-4.526,1.815-6.733,6.948-4.922,11.478
	c1.379,3.448,4.698,5.551,8.199,5.551c1.095,0,2.207-0.207,3.276-0.633c9.478-3.791,17.112-8.662,23.32-14.048
	c6.666,5.789,14.371,10.556,23.094,14.045c1.069,0.429,2.182,0.637,3.276,0.637c3.5,0,6.819-2.103,8.199-5.551
	c1.811-4.526-0.396-9.664-4.922-11.474c-6.826-2.732-12.672-6.436-17.785-10.824c8.867-12.553,12.367-25.594,13.682-33.948h9.655
	c4.879,0,8.828-3.953,8.828-8.828S181.431,176.547,176.552,176.547z"/>
<path style="fill:#D7DEED;" d="M141.241,308.966H70.621c-4.875,0-8.828-3.953-8.828-8.828l0,0c0-4.875,3.953-8.828,8.828-8.828
	h70.621c4.875,0,8.828,3.953,8.828,8.828l0,0C150.069,305.013,146.116,308.966,141.241,308.966z"/>
<path style="fill:#AFB9D2;" d="M211.862,308.966h-35.31c-4.875,0-8.828-3.953-8.828-8.828l0,0c0-4.875,3.953-8.828,8.828-8.828
	h35.31c4.875,0,8.828,3.953,8.828,8.828l0,0C220.69,305.013,216.737,308.966,211.862,308.966z"/>
<path style="fill:#D7DEED;" d="M141.241,379.586H70.621c-4.875,0-8.828-3.953-8.828-8.828l0,0c0-4.875,3.953-8.828,8.828-8.828
	h70.621c4.875,0,8.828,3.953,8.828,8.828l0,0C150.069,375.634,146.116,379.586,141.241,379.586z"/>
<g>
	<path style="fill:#AFB9D2;" d="M211.862,379.586h-35.31c-4.875,0-8.828-3.953-8.828-8.828l0,0c0-4.875,3.953-8.828,8.828-8.828
		h35.31c4.875,0,8.828,3.953,8.828,8.828l0,0C220.69,375.634,216.737,379.586,211.862,379.586z"/>
	<path style="fill:#AFB9D2;" d="M105.931,344.276h-35.31c-4.875,0-8.828-3.953-8.828-8.828l0,0c0-4.875,3.953-8.828,8.828-8.828
		h35.31c4.875,0,8.828,3.953,8.828,8.828l0,0C114.759,340.323,110.806,344.276,105.931,344.276z"/>
</g>
<path style="fill:#D7DEED;" d="M211.862,344.276h-70.621c-4.875,0-8.828-3.953-8.828-8.828l0,0c0-4.875,3.953-8.828,8.828-8.828
	h70.621c4.875,0,8.828,3.953,8.828,8.828l0,0C220.69,340.323,216.737,344.276,211.862,344.276z"/>
<path style="fill:#FFFFFF;" d="M370.759,361.931h70.621c4.875,0,8.828,3.953,8.828,8.828l0,0c0,4.875-3.953,8.828-8.828,8.828
	h-70.621c-4.875,0-8.828-3.953-8.828-8.828l0,0C361.931,365.884,365.884,361.931,370.759,361.931z"/>
<path style="fill:#D7DEED;" d="M300.138,361.931h35.31c4.875,0,8.828,3.953,8.828,8.828l0,0c0,4.875-3.953,8.828-8.828,8.828h-35.31
	c-4.875,0-8.828-3.953-8.828-8.828l0,0C291.31,365.884,295.263,361.931,300.138,361.931z"/>
<path style="fill:#FFFFFF;" d="M370.759,291.31h70.621c4.875,0,8.828,3.953,8.828,8.828l0,0c0,4.875-3.953,8.828-8.828,8.828
	h-70.621c-4.875,0-8.828-3.953-8.828-8.828l0,0C361.931,295.263,365.884,291.31,370.759,291.31z"/>
<g>
	<path style="fill:#D7DEED;" d="M300.138,291.31h35.31c4.875,0,8.828,3.953,8.828,8.828l0,0c0,4.875-3.953,8.828-8.828,8.828h-35.31
		c-4.875,0-8.828-3.953-8.828-8.828l0,0C291.31,295.263,295.263,291.31,300.138,291.31z"/>
	<path style="fill:#D7DEED;" d="M406.069,326.621h35.31c4.875,0,8.828,3.953,8.828,8.828l0,0c0,4.875-3.953,8.828-8.828,8.828
		h-35.31c-4.875,0-8.828-3.953-8.828-8.828l0,0C397.241,330.573,401.194,326.621,406.069,326.621z"/>
</g>
<g>
	<path style="fill:#FFFFFF;" d="M300.138,326.621h70.621c4.875,0,8.828,3.953,8.828,8.828l0,0c0,4.875-3.953,8.828-8.828,8.828
		h-70.621c-4.875,0-8.828-3.953-8.828-8.828l0,0C291.31,330.573,295.263,326.621,300.138,326.621z"/>
	<path style="fill:#FFFFFF;" d="M414.335,244.073l-23.39-62.371c-3.135-8.361-11.24-13.977-20.205-13.977
		c-8.928,0-17.033,5.617-20.168,13.976l-23.39,62.372c-1.711,4.565,0.601,9.654,5.166,11.366c4.564,1.714,9.654-0.6,11.366-5.166
		l4.472-11.927h45.144l4.472,11.927c1.33,3.544,4.692,5.73,8.267,5.73c1.03,0,2.078-0.182,3.099-0.564
		C413.734,253.726,416.046,248.638,414.335,244.073z M354.807,220.69l12.296-32.789c0.566-1.508,2.027-2.521,3.674-2.521
		c1.61,0,3.072,1.013,3.637,2.52l12.296,32.79H354.807z"/>
</g>
<g>
</g>
<g>
</g>
<g>
</g>
<g>
</g>
<g>
</g>
<g>
</g>
<g>
</g>
<g>
</g>
<g>
</g>
<g>
</g>
<g>
</g>
<g>
</g>
<g>
</g>
<g>
</g>
<g>
</g>
</svg>
